<?xml version="1.0" encoding="UTF-8"?>
<svg width="60" height="40" viewBox="0 0 60 40" xmlns="http://www.w3.org/2000/svg">
  <!-- Title text -->
  <text x="30" y="8" text-anchor="middle" font-family="Arial, sans-serif" font-size="5" font-weight="bold" fill="#2E5C8A">IntelliMap</text>
  
  <!-- Neural network in the center -->
  <circle cx="30" cy="25" r="6" fill="#4A90E2" stroke="#2E5C8A" stroke-width="1"/>
  <circle cx="27" cy="22" r="0.8" fill="#FFFFFF"/>
  <circle cx="33" cy="22" r="0.8" fill="#FFFFFF"/>
  <circle cx="30" cy="28" r="0.8" fill="#FFFFFF"/>
  <circle cx="25" cy="27" r="0.6" fill="#FFFFFF"/>
  <circle cx="35" cy="27" r="0.6" fill="#FFFFFF"/>
  <circle cx="28" cy="19" r="0.5" fill="#FFFFFF"/>
  <circle cx="32" cy="19" r="0.5" fill="#FFFFFF"/>
  
  <!-- Neural connections -->
  <line x1="27" y1="22" x2="30" y2="28" stroke="#FFFFFF" stroke-width="0.4"/>
  <line x1="33" y1="22" x2="30" y2="28" stroke="#FFFFFF" stroke-width="0.4"/>
  <line x1="27" y1="22" x2="25" y2="27" stroke="#FFFFFF" stroke-width="0.3"/>
  <line x1="33" y1="22" x2="35" y2="27" stroke="#FFFFFF" stroke-width="0.3"/>
  <line x1="28" y1="19" x2="27" y2="22" stroke="#FFFFFF" stroke-width="0.3"/>
  <line x1="32" y1="19" x2="33" y2="22" stroke="#FFFFFF" stroke-width="0.3"/>
  <line x1="28" y1="19" x2="32" y2="19" stroke="#FFFFFF" stroke-width="0.2"/>
  
  <!-- Unstructured input lines (left) -->
  <text x="12" y="15" text-anchor="middle" font-family="Arial, sans-serif" font-size="2.5" font-weight="bold" fill="#7ED321">Raw Input</text>
  <rect x="2" y="18" width="8" height="1.5" fill="#7ED321" rx="0.3"/>
  <rect x="2" y="20.5" width="6" height="1.5" fill="#7ED321" rx="0.3"/>
  <rect x="2" y="23" width="9" height="1.5" fill="#7ED321" rx="0.3"/>
  <rect x="2" y="25.5" width="5" height="1.5" fill="#7ED321" rx="0.3"/>
  <rect x="2" y="28" width="7" height="1.5" fill="#7ED321" rx="0.3"/>
  <rect x="2" y="30.5" width="6.5" height="1.5" fill="#7ED321" rx="0.3"/>
  <rect x="2" y="33" width="8" height="1.5" fill="#7ED321" rx="0.3"/>
  
  <!-- Small dots in raw input to show unstructured nature -->
  <circle cx="3.5" cy="19" r="0.2" fill="#4A4A4A"/>
  <circle cx="4.5" cy="19" r="0.2" fill="#4A4A4A"/>
  <circle cx="3.5" cy="21.5" r="0.2" fill="#4A4A4A"/>
  <circle cx="3.5" cy="24" r="0.2" fill="#4A4A4A"/>
  <circle cx="4.5" cy="24" r="0.2" fill="#4A4A4A"/>
  
  <!-- Structured mapped data (right) -->
  <text x="48" y="15" text-anchor="middle" font-family="Arial, sans-serif" font-size="2.5" font-weight="bold" fill="#50E3C2">Mapped Data</text>
  <rect x="40" y="18" width="16" height="2" fill="#50E3C2" rx="0.3"/>
  <rect x="40" y="21" width="16" height="2" fill="#50E3C2" rx="0.3"/>
  <rect x="40" y="24" width="16" height="2" fill="#50E3C2" rx="0.3"/>
  <rect x="40" y="27" width="16" height="2" fill="#50E3C2" rx="0.3"/>
  <rect x="40" y="30" width="16" height="2" fill="#50E3C2" rx="0.3"/>
  <rect x="40" y="33" width="16" height="2" fill="#50E3C2" rx="0.3"/>
  
  <!-- Grid lines in structured data -->
  <line x1="44" y1="18" x2="44" y2="20" stroke="#2D9CDB" stroke-width="0.3"/>
  <line x1="48" y1="18" x2="48" y2="20" stroke="#2D9CDB" stroke-width="0.3"/>
  <line x1="52" y1="18" x2="52" y2="20" stroke="#2D9CDB" stroke-width="0.3"/>
  <line x1="44" y1="21" x2="44" y2="23" stroke="#2D9CDB" stroke-width="0.3"/>
  <line x1="48" y1="21" x2="48" y2="23" stroke="#2D9CDB" stroke-width="0.3"/>
  <line x1="52" y1="21" x2="52" y2="23" stroke="#2D9CDB" stroke-width="0.3"/>
  <line x1="44" y1="24" x2="44" y2="26" stroke="#2D9CDB" stroke-width="0.3"/>
  <line x1="48" y1="24" x2="48" y2="26" stroke="#2D9CDB" stroke-width="0.3"/>
  <line x1="52" y1="24" x2="52" y2="26" stroke="#2D9CDB" stroke-width="0.3"/>
  
  <!-- Transformation arrows -->
  <path d="M 12 22 L 16 22 L 15 21 M 16 22 L 15 23" stroke="#FF6B35" stroke-width="1.2" fill="none"/>
  <path d="M 12 26 L 16 26 L 15 25 M 16 26 L 15 27" stroke="#FF6B35" stroke-width="1.2" fill="none"/>
  <path d="M 12 30 L 16 30 L 15 29 M 16 30 L 15 31" stroke="#FF6B35" stroke-width="1.2" fill="none"/>
  
  <path d="M 37 22 L 39 22 L 38.3 21.3 M 39 22 L 38.3 22.7" stroke="#FF6B35" stroke-width="1.2" fill="none"/>
  <path d="M 37 26 L 39 26 L 38.3 25.3 M 39 26 L 38.3 26.7" stroke="#FF6B35" stroke-width="1.2" fill="none"/>
  <path d="M 37 30 L 39 30 L 38.3 29.3 M 39 30 L 38.3 30.7" stroke="#FF6B35" stroke-width="1.2" fill="none"/>
  
  <!-- AI confidence indicator -->
  <circle cx="30" cy="36" r="1.5" fill="#00D4AA"/>
  <text x="30" y="37.5" text-anchor="middle" font-family="Arial, sans-serif" font-size="1.5" font-weight="bold" fill="#FFFFFF">AI</text>
</svg> 