<?xml version="1.0" encoding="UTF-8"?>
<svg width="27" height="19" viewBox="0 0 27 19" xmlns="http://www.w3.org/2000/svg">
  <!-- Title text -->
  <text x="13.5" y="3" text-anchor="middle" font-family="Arial, sans-serif" font-size="2.5" font-weight="bold" fill="#2E5C8A">IntelliMap</text>
  
  <!-- Neural network in the center -->
  <circle cx="13.5" cy="11" r="3" fill="#4A90E2" stroke="#2E5C8A" stroke-width="0.5"/>
  <circle cx="12" cy="9.5" r="0.4" fill="#FFFFFF"/>
  <circle cx="15" cy="9.5" r="0.4" fill="#FFFFFF"/>
  <circle cx="13.5" cy="12.5" r="0.4" fill="#FFFFFF"/>
  <circle cx="11.5" cy="12" r="0.3" fill="#FFFFFF"/>
  <circle cx="15.5" cy="12" r="0.3" fill="#FFFFFF"/>
  
  <!-- Neural connections -->
  <line x1="12" y1="9.5" x2="13.5" y2="12.5" stroke="#FFFFFF" stroke-width="0.2"/>
  <line x1="15" y1="9.5" x2="13.5" y2="12.5" stroke="#FFFFFF" stroke-width="0.2"/>
  <line x1="12" y1="9.5" x2="11.5" y2="12" stroke="#FFFFFF" stroke-width="0.2"/>
  <line x1="15" y1="9.5" x2="15.5" y2="12" stroke="#FFFFFF" stroke-width="0.2"/>
  
  <!-- Unstructured input lines (left) -->
  <rect x="1" y="6" width="4" height="0.8" fill="#7ED321" rx="0.2"/>
  <rect x="1" y="8" width="3" height="0.8" fill="#7ED321" rx="0.2"/>
  <rect x="1" y="10" width="4.5" height="0.8" fill="#7ED321" rx="0.2"/>
  <rect x="1" y="12" width="2.5" height="0.8" fill="#7ED321" rx="0.2"/>
  <rect x="1" y="14" width="3.5" height="0.8" fill="#7ED321" rx="0.2"/>
  
  <!-- Structured mapped data (right) -->
  <rect x="21" y="6" width="5" height="1" fill="#50E3C2" rx="0.2"/>
  <rect x="21" y="8" width="5" height="1" fill="#50E3C2" rx="0.2"/>
  <rect x="21" y="10" width="5" height="1" fill="#50E3C2" rx="0.2"/>
  <rect x="21" y="12" width="5" height="1" fill="#50E3C2" rx="0.2"/>
  <rect x="21" y="14" width="5" height="1" fill="#50E3C2" rx="0.2"/>
  
  <!-- Grid lines in structured data -->
  <line x1="22.5" y1="6" x2="22.5" y2="7" stroke="#2D9CDB" stroke-width="0.15"/>
  <line x1="24" y1="6" x2="24" y2="7" stroke="#2D9CDB" stroke-width="0.15"/>
  <line x1="22.5" y1="8" x2="22.5" y2="9" stroke="#2D9CDB" stroke-width="0.15"/>
  <line x1="24" y1="8" x2="24" y2="9" stroke="#2D9CDB" stroke-width="0.15"/>
  <line x1="22.5" y1="10" x2="22.5" y2="11" stroke="#2D9CDB" stroke-width="0.15"/>
  <line x1="24" y1="10" x2="24" y2="11" stroke="#2D9CDB" stroke-width="0.15"/>
  
  <!-- Transformation arrows -->
  <path d="M 6 9 L 8 9 L 7.3 8.3 M 8 9 L 7.3 9.7" stroke="#FF6B35" stroke-width="0.6" fill="none"/>
  <path d="M 6 12 L 8 12 L 7.3 11.3 M 8 12 L 7.3 12.7" stroke="#FF6B35" stroke-width="0.6" fill="none"/>
  
  <path d="M 18 9 L 20 9 L 19.3 8.3 M 20 9 L 19.3 9.7" stroke="#FF6B35" stroke-width="0.6" fill="none"/>
  <path d="M 18 12 L 20 12 L 19.3 11.3 M 20 12 L 19.3 12.7" stroke="#FF6B35" stroke-width="0.6" fill="none"/>
</svg> 